<svg width="320" height="520" viewBox="0 0 320 520" fill="none" xmlns="http://www.w3.org/2000/svg">
  <defs>
    <linearGradient id="bg" x1="36" y1="12" x2="282" y2="504" gradientUnits="userSpaceOnUse">
      <stop stop-color="#7C1018"/>
      <stop offset="0.45" stop-color="#951A26"/>
      <stop offset="1" stop-color="#541017"/>
    </linearGradient>
    <linearGradient id="gold" x1="112" y1="130" x2="210" y2="308" gradientUnits="userSpaceOnUse">
      <stop stop-color="#F5D99B"/>
      <stop offset="0.45" stop-color="#D1A656"/>
      <stop offset="1" stop-color="#80561A"/>
    </linearGradient>
    <linearGradient id="green" x1="0" y1="0" x2="1" y2="1">
      <stop stop-color="#67D0AA"/>
      <stop offset="1" stop-color="#1E6F59"/>
    </linearGradient>
    <filter id="shadow" x="0" y="0" width="320" height="520" filterUnits="userSpaceOnUse" color-interpolation-filters="sRGB">
      <feDropShadow dx="0" dy="16" stdDeviation="16" flood-color="#140406" flood-opacity="0.38"/>
    </filter>
    <filter id="glow" x="132" y="330" width="84" height="124" filterUnits="userSpaceOnUse" color-interpolation-filters="sRGB">
      <feGaussianBlur stdDeviation="9" result="blur"/>
      <feColorMatrix in="blur" type="matrix" values="1 0 0 0 0.98 0 1 0 0 0.79 0 0 1 0 0.16 0 0 0 1 0"/>
    </filter>
  </defs>

  <g filter="url(#shadow)">
    <path d="M32 18L291 10L300 498L38 510L32 18Z" fill="url(#bg)"/>
    <path d="M51 18L79 14L82 508L52 511L51 18Z" fill="#5A0C14" fill-opacity="0.42"/>
    <path d="M134 12L162 11L169 509L137 509L134 12Z" fill="#5C0E16" fill-opacity="0.5"/>
    <path d="M223 12L250 12L257 506L226 506L223 12Z" fill="#560B15" fill-opacity="0.44"/>
    <path d="M40 24C56 17 73 16 89 20" stroke="#D89A79" stroke-opacity="0.36" stroke-width="6" stroke-linecap="round"/>
    <path d="M230 18C250 10 271 11 289 17" stroke="#D89A79" stroke-opacity="0.28" stroke-width="6" stroke-linecap="round"/>
    <path d="M44 501C57 494 75 493 90 496" stroke="#D89A79" stroke-opacity="0.32" stroke-width="6" stroke-linecap="round"/>
  </g>

  <g opacity="0.95" stroke="url(#green)" stroke-width="12" stroke-linecap="round" stroke-linejoin="round">
    <path d="M66 82C48 106 47 136 69 160C91 186 91 226 69 249C49 269 49 303 67 326C85 350 87 380 71 430"/>
    <path d="M141 86C119 116 120 151 149 183C177 214 180 250 158 277C138 301 138 337 156 365"/>
    <path d="M248 84C275 116 274 156 248 187C223 216 223 251 243 279C263 309 264 350 244 428"/>
  </g>

  <g opacity="0.9">
    <path d="M171 366C190 357 207 366 210 385C214 405 202 422 181 426C160 430 147 420 145 399C143 384 151 373 171 366Z" fill="#F2C94C" filter="url(#glow)"/>
    <path d="M170 374C183 367 194 374 196 387C199 400 192 411 179 415C166 418 157 413 155 401C153 390 158 380 170 374Z" fill="#F2B632"/>
  </g>

  <g>
    <rect x="36" y="306" width="72" height="110" rx="8" fill="#1E1A1B" stroke="#C59C5A" stroke-width="4"/>
    <rect x="44" y="314" width="56" height="94" rx="5" fill="#070707"/>
    <path d="M64 330C76 346 83 359 85 372C87 386 83 399 71 410" stroke="#7C8B98" stroke-width="7" stroke-linecap="round"/>
    <path d="M59 350C70 360 76 373 78 388" stroke="#D7E0E4" stroke-width="5" stroke-linecap="round"/>
  </g>

  <g>
    <circle cx="169" cy="234" r="76" fill="#6A4416" opacity="0.92"/>
    <circle cx="169" cy="234" r="68" fill="url(#gold)" stroke="#704611" stroke-width="8"/>
    <circle cx="169" cy="234" r="58" fill="#F3E1B4" stroke="#9E7431" stroke-width="4"/>
    <circle cx="169" cy="234" r="10" fill="#8F6327"/>
    <path d="M168 183V198M168 270V286M118 234H132M206 234H221M133 198L143 207M194 260L204 269M204 198L194 207M143 260L133 270" stroke="#6B4A1B" stroke-width="4" stroke-linecap="round"/>
    <path d="M169 234L196 220" stroke="#40260A" stroke-width="5" stroke-linecap="round"/>
    <path d="M169 234L170 199" stroke="#40260A" stroke-width="4" stroke-linecap="round"/>
    <circle cx="169" cy="234" r="3" fill="#2B1705"/>
  </g>

  <g fill="#8B6330" stroke="#D6B26B" stroke-width="4">
    <circle cx="112" cy="215" r="10"/>
    <circle cx="225" cy="213" r="10"/>
    <circle cx="92" cy="333" r="12"/>
    <circle cx="260" cy="317" r="12"/>
  </g>

  <g opacity="0.72" stroke="#FFDB76" stroke-width="3" stroke-linecap="round">
    <path d="M176 356L182 344"/>
    <path d="M190 367L202 360"/>
    <path d="M163 370L155 359"/>
    <path d="M184 384L197 385"/>
    <path d="M170 395L160 404"/>
  </g>
</svg>
