<svg width="720" height="560" viewBox="0 0 720 560" fill="none" xmlns="http://www.w3.org/2000/svg">
  <defs>
    <linearGradient id="sky" x1="360" y1="28" x2="360" y2="542" gradientUnits="userSpaceOnUse">
      <stop stop-color="#F6ECE8"/>
      <stop offset="0.45" stop-color="#EBC9D4"/>
      <stop offset="0.75" stop-color="#925069"/>
      <stop offset="1" stop-color="#2C1620"/>
    </linearGradient>
    <linearGradient id="tower" x1="361" y1="112" x2="361" y2="494" gradientUnits="userSpaceOnUse">
      <stop stop-color="#C99D8D"/>
      <stop offset="0.4" stop-color="#8C5D58"/>
      <stop offset="1" stop-color="#341C24"/>
    </linearGradient>
    <linearGradient id="leftFace" x1="72" y1="144" x2="246" y2="384" gradientUnits="userSpaceOnUse">
      <stop stop-color="#F7D0A4"/>
      <stop offset="0.5" stop-color="#C9866D"/>
      <stop offset="1" stop-color="#6A3344"/>
    </linearGradient>
    <linearGradient id="rightFace" x1="470" y1="126" x2="646" y2="388" gradientUnits="userSpaceOnUse">
      <stop stop-color="#FFD8BD"/>
      <stop offset="0.42" stop-color="#A65A4B"/>
      <stop offset="1" stop-color="#4A2240"/>
    </linearGradient>
    <radialGradient id="mist" cx="0" cy="0" r="1" gradientUnits="userSpaceOnUse" gradientTransform="translate(360 446) rotate(90) scale(126 312)">
      <stop stop-color="#F29BA8" stop-opacity="0.62"/>
      <stop offset="1" stop-color="#F29BA8" stop-opacity="0"/>
    </radialGradient>
  </defs>

  <rect width="720" height="560" rx="34" fill="url(#sky)"/>
  <ellipse cx="360" cy="452" rx="308" ry="124" fill="url(#mist)"/>

  <g opacity="0.92">
    <path d="M329 498L346 182H377L394 498H329Z" fill="url(#tower)"/>
    <path d="M334 180L362 72L390 180H334Z" fill="#8A6664"/>
    <path d="M321 185H401L392 318H330L321 185Z" fill="#694A4E"/>
    <path d="M333 202H389V273H333V202Z" fill="#EBD8C8"/>
    <circle cx="361" cy="236" r="28" fill="#FAF4EB" stroke="#9B6B53" stroke-width="6"/>
    <path d="M361 236L380 224" stroke="#5C3125" stroke-width="4" stroke-linecap="round"/>
    <path d="M361 236V214" stroke="#5C3125" stroke-width="3" stroke-linecap="round"/>
    <path d="M345 330H377V498H345V330Z" fill="#51353F"/>
    <path d="M317 318H405V332H317V318Z" fill="#2A1B22"/>
    <path d="M330 347H392V362H330V347Z" fill="#3F2730"/>
  </g>

  <g opacity="0.98">
    <path d="M0 482C44 404 74 318 88 224C124 134 205 102 298 143C231 165 192 212 172 285C149 365 118 433 75 488L0 482Z" fill="#4E2333"/>
    <path d="M10 508C38 470 70 458 108 470C143 482 172 503 194 534H0L10 508Z" fill="#220E15"/>
    <path d="M46 208C59 159 90 128 139 116C193 102 232 117 258 162C215 152 174 166 138 204C111 232 84 248 58 250L46 208Z" fill="url(#leftFace)"/>
    <path d="M82 184C104 162 127 154 151 160C131 175 120 196 116 224C103 215 91 202 82 184Z" fill="#F2E2D4"/>
    <path d="M61 222C75 226 86 233 95 244C107 257 114 273 116 292C101 286 88 276 76 262C66 249 60 236 61 222Z" fill="#E6E3E1"/>
    <path d="M111 252C131 252 147 258 160 271C146 277 131 281 114 283C96 286 79 285 63 280C75 262 91 253 111 252Z" fill="#EFEAE4"/>
    <path d="M130 126C140 108 157 97 180 94C170 116 171 137 183 158C165 160 148 154 130 140V126Z" fill="#E7D6C9"/>
  </g>

  <g opacity="0.98">
    <path d="M720 484C674 398 642 308 626 214C587 128 505 101 412 147C481 167 520 214 541 288C564 369 594 436 636 490L720 484Z" fill="#361A35"/>
    <path d="M720 534H530C548 506 577 485 618 472C657 460 689 470 714 502L720 534Z" fill="#1B0C15"/>
    <path d="M670 205C656 156 626 126 579 114C526 100 486 116 460 162C502 151 543 165 580 202C607 229 635 244 662 246L670 205Z" fill="url(#rightFace)"/>
    <path d="M612 181C592 161 569 154 544 160C565 175 578 196 583 224C595 214 605 200 612 181Z" fill="#F8E7D8"/>
    <path d="M570 251C586 248 602 251 617 259C604 270 587 279 566 285C545 291 526 293 509 290C524 267 544 254 570 251Z" fill="#F3E1D9"/>
    <path d="M565 104C584 90 605 90 630 103C618 114 614 132 620 156C603 158 586 154 570 143L565 104Z" fill="#986154"/>
    <path d="M546 118C567 111 588 111 610 118L618 147L536 151L546 118Z" fill="#B87859"/>
  </g>

  <g opacity="0.84" fill="#2F131E">
    <path d="M122 430C136 421 152 420 170 426C151 431 135 433 122 430Z"/>
    <path d="M147 439C160 432 175 432 192 438C177 441 162 442 147 439Z"/>
    <path d="M521 434C537 425 554 424 572 430C554 435 537 437 521 434Z"/>
    <path d="M548 443C562 436 578 436 595 442C579 445 563 446 548 443Z"/>
  </g>
</svg>
