<svg width="320" height="520" viewBox="0 0 320 520" fill="none" xmlns="http://www.w3.org/2000/svg">
  <defs>
    <linearGradient id="bg" x1="34" y1="18" x2="286" y2="506" gradientUnits="userSpaceOnUse">
      <stop stop-color="#4B342A"/>
      <stop offset="0.48" stop-color="#6C4C3A"/>
      <stop offset="1" stop-color="#38261F"/>
    </linearGradient>
    <linearGradient id="metal" x1="111" y1="152" x2="220" y2="294" gradientUnits="userSpaceOnUse">
      <stop stop-color="#DCC9A4"/>
      <stop offset="0.4" stop-color="#A98A57"/>
      <stop offset="1" stop-color="#6B4C28"/>
    </linearGradient>
    <linearGradient id="wire" x1="0" y1="0" x2="1" y2="1">
      <stop stop-color="#6A5746"/>
      <stop offset="1" stop-color="#2D241E"/>
    </linearGradient>
    <filter id="shadow" x="0" y="0" width="320" height="520" filterUnits="userSpaceOnUse" color-interpolation-filters="sRGB">
      <feDropShadow dx="0" dy="16" stdDeviation="16" flood-color="#0E0906" flood-opacity="0.34"/>
    </filter>
  </defs>

  <g filter="url(#shadow)">
    <rect x="36" y="16" width="248" height="492" rx="18" fill="#F7F3ED"/>
    <rect x="44" y="24" width="232" height="476" rx="14" fill="url(#bg)"/>
    <rect x="50" y="30" width="220" height="464" rx="12" stroke="#EDE3D1" stroke-opacity="0.22" stroke-width="2"/>
  </g>

  <path d="M90 56C87 44 98 34 110 37L244 65C256 68 261 82 254 93L244 108L94 80L90 56Z" fill="#2E231D" fill-opacity="0.28"/>

  <g opacity="0.96" stroke="url(#wire)" stroke-width="12" stroke-linecap="round" stroke-linejoin="round">
    <path d="M92 92C73 121 73 154 96 181C119 209 120 241 100 267C82 291 82 324 96 349C111 374 112 405 96 431"/>
    <path d="M156 89C133 119 135 154 165 185C193 216 196 251 174 279C154 305 154 340 171 367"/>
    <path d="M233 95C257 124 258 159 236 188C214 215 214 248 233 276C252 305 252 343 232 430"/>
  </g>

  <g>
    <circle cx="168" cy="236" r="74" fill="#5E4327" opacity="0.94"/>
    <circle cx="168" cy="236" r="66" fill="url(#metal)" stroke="#6D4D28" stroke-width="8"/>
    <circle cx="168" cy="236" r="57" fill="#E7D8B4" stroke="#8B6A3D" stroke-width="4"/>
    <circle cx="168" cy="236" r="9" fill="#76562E"/>
    <path d="M168 187V200M168 271V285M120 236H133M203 236H217M136 202L145 210M191 261L200 270M201 202L191 210M145 261L136 270" stroke="#6B4A1B" stroke-width="4" stroke-linecap="round"/>
    <path d="M168 236L191 222" stroke="#3F2A12" stroke-width="5" stroke-linecap="round"/>
    <path d="M168 236L169 201" stroke="#3F2A12" stroke-width="4" stroke-linecap="round"/>
  </g>

  <g>
    <rect x="44" y="318" width="66" height="102" rx="8" fill="#211A17" stroke="#AE8B58" stroke-width="4"/>
    <rect x="52" y="326" width="50" height="86" rx="5" fill="#110D0C"/>
    <path d="M72 340C81 350 87 359 89 371C91 382 88 393 79 403" stroke="#7E8180" stroke-width="6" stroke-linecap="round"/>
  </g>
</svg>
